<svg width="111" height="31" viewBox="0 0 111 31" fill="none" xmlns="http://www.w3.org/2000/svg">
<path d="M21.1406 30.5215V25.9746H12L9.04688 30.5215H0.046875L17.8125 3.09961C19.0312 1.22461 20.7031 0.287109 22.8281 0.287109C24.4219 0.287109 25.7969 0.880859 26.9531 2.06836C28.1406 3.22461 28.7344 4.59961 28.7344 6.19336V16.9277H21.1406V11.8652L16.8281 18.4277H28.7344V30.5215H21.1406ZM60.4688 30.5215V11.8652C59.2812 14.0215 58.3125 15.7715 57.5625 17.1152C54.9375 21.709 52.375 24.0059 49.875 24.0059C47.4062 24.0059 44.8594 21.7246 42.2344 17.1621C41.2344 15.4121 40.25 13.6465 39.2812 11.8652V30.5215H31.7344V6.19336C31.7344 4.56836 32.3125 3.17773 33.4688 2.02148C34.625 0.865234 36.0156 0.287109 37.6406 0.287109C40.4219 0.287109 43.3594 2.91211 46.4531 8.16211C47.5781 10.1934 48.7188 12.2246 49.875 14.2559C50.8438 12.5059 51.8281 10.7559 52.8281 9.00586C54.3281 6.38086 55.6875 4.41211 56.9062 3.09961C58.6562 1.22461 60.3906 0.287109 62.1094 0.287109C63.7344 0.287109 65.125 0.865234 66.2812 2.02148C67.4375 3.17773 68.0156 4.56836 68.0156 6.19336V30.5215H60.4688ZM71.7656 30.5215V0.287109H79.3594V30.5215H71.7656ZM105.234 7.83398H99.7031V0.287109H110.297L105.234 7.83398ZM90.6562 30.5215V7.83398H83.1094V0.287109H98.2031V30.5215H90.6562Z" fill="#C40808"/>
</svg>
